<?xml version="1.0" encoding="UTF-8" standalone="no"?>
<svg width="181px" height="41px" viewBox="0 0 181 41" version="1.1" xmlns="http://www.w3.org/2000/svg" xmlns:xlink="http://www.w3.org/1999/xlink">
    <!-- Generator: Sketch 41 (35326) - http://www.bohemiancoding.com/sketch -->
    <title>Page 1</title>
    <desc>Created with Sketch.</desc>
    <defs>
        <polygon id="path-1" points="0 40.9585287 180.977825 40.9585287 180.977825 0.59594639 0 0.59594639"></polygon>
    </defs>
    <g id="Page-1" stroke="none" stroke-width="1" fill="none" fill-rule="evenodd">
        <g id="home" transform="translate(-630.000000, -791.000000)">
            <g id="Page-1" transform="translate(630.000000, 791.000000)">
                <polygon id="Fill-1" fill="#EFD687" points="0 0.595886784 0 39.8676691 2.3038543 39.8676691 2.3038543 6.98571005 29.4436656 40.9584691 29.4436656 1.6872829 27.1404106 1.6872829 27.1404106 34.6044098"></polygon>
                <polygon id="Fill-2" fill="#EFD687" points="38.8952219 39.8677287 41.1990762 39.8677287 41.1990762 1.68674644 38.8952219 1.68674644"></polygon>
                <path d="M72.7317334,5.55843097 C67.0925646,2.37603671 52.1624619,0.334512017 52.1624619,10.8455329 C52.1624619,15.8453312 57.5678891,16.7757896 62.2774851,18.1562775 C69.7997732,20.3766219 75.0871308,22.4437774 75.0871308,29.6841863 C75.0871308,45.1199011 53.4786076,41.4105849 49.2556738,36.6110646 L50.414793,34.597555 C56.0030182,39.6420582 72.7832765,41.5900006 72.7832765,29.6978958 C72.7832765,23.5637847 66.7851043,21.9091065 61.7908228,20.4457655 C54.5987699,18.333905 49.8586076,17.1459463 49.8586076,10.8503014 C49.8586076,-0.658533279 63.844154,-0.767613284 73.6061672,3.32318495 L72.7317334,5.55843097 L72.7317334,5.55843097 Z" id="Fill-3" fill="#EFD687"></path>
                <polygon id="Fill-5" fill="#EFD687" points="111.847032 39.8676691 109.543178 39.8676691 109.543178 21.8754288 85.6158169 21.8754288 85.6158169 39.8676691 83.3125619 39.8676691 83.3125619 21.8754288 83.3125619 19.6789271 83.3125619 1.68668684 85.6158169 1.68668684 85.6158169 19.6789271 109.543178 19.6789271 109.543178 1.68668684 111.847032 1.68668684 111.847032 19.6789271 111.847032 21.8754288"></polygon>
                <polygon id="Fill-7" fill="#EFD687" points="161.075796 21.284847 161.075796 37.7147993 180.928859 37.7147993 180.928859 39.8677883 158.771941 39.8677883 158.771941 1.68680605 180.928859 1.68680605 180.928859 3.83860288 161.075796 3.83860288 161.075796 19.1336463"></polygon>
                <mask id="mask-2" fill="white">
                    <use xlink:href="#path-1"></use>
                </mask>
                <g id="Clip-10"></g>
                <polygon id="Fill-9" fill="#EFD687" mask="url(#mask-2)" points="83.345106 21.7997881 180.977825 21.7997881 180.977825 19.7219034 83.345106 19.7219034"></polygon>
                <polygon id="Fill-11" fill="#EFD687" mask="url(#mask-2)" points="120.531017 39.87965 150.201232 39.87965 150.201232 37.7159319 120.531017 37.7159319"></polygon>
                <polygon id="Fill-12" fill="#EFD687" mask="url(#mask-2)" points="147.912001 33.3895685 135.334899 5.70291727 122.829717 33.3871842 120.531856 33.3871842 135.328905 0.623246195 150.224846 33.3871842"></polygon>
            </g>
        </g>
    </g>
</svg>